<?xml version="1.0" encoding="utf-8"?>
<!DOCTYPE svg PUBLIC "-//W3C//DTD SVG 1.1//EN" "http://www.w3.org/Graphics/SVG/1.1/DTD/svg11.dtd">
<svg version="1.1" xmlns="http://www.w3.org/2000/svg" viewBox="0 0 34 30">
<style type="text/css">
	.st0{filter:url(#Adobe_OpacityMaskFilter);}
	.st1{mask:url(#SVGID_1_);}
	.st2{fill:#231F20;}
	.st3{fill:#FFFFFF;}
	.st4{fill:url(#SVGID_2_);}
	.st5{filter:url(#Adobe_OpacityMaskFilter_1_);}
</style>
<g>
	<g>
		<defs>
			<filter id="Adobe_OpacityMaskFilter" filterUnits="userSpaceOnUse" x="12.1" y="0.6" width="10" height="3.7">
				<feFlood style="flood-color:white;flood-opacity:1" result="back"></feFlood>
				<feBlend in="SourceGraphic" in2="back" mode="normal"></feBlend>
			</filter>
		</defs>
		<mask maskUnits="userSpaceOnUse" x="12.1" y="0.6" width="10" height="3.7" id="SVGID_1_">
			<g class="st0">
				<image style="overflow:visible;" width="15" height="9" xmlns:xlink="http://www.w3.org/1999/xlink" xlink:href="C1B7A6A7.jpg" transform="matrix(1 0 0 1 10 -2)">
				</image>
			</g>
		</mask>
		<g class="st1">
			<path class="st2" d="M13.9,2.8c3.5,0.3,4.5,1.4,4.9,1.5c0.2,0,0.5-0.1,0.8-0.3c-0.6-0.1-0.9-0.2-0.9-0.2c0.5-0.1,0.9-0.1,1.4-0.1
				c0.5-0.4,1-0.8,1-0.9c0.1-0.2,0.7-0.6,1-1c-0.8-0.3-1.7-0.6-2.5-0.7c-1.4-0.2-1.5-0.3-3.2-0.5c-1.5-0.1-3,0.3-4.2,0.8
				C11.9,1.9,12,2.6,13.9,2.8z"></path>
		</g>
	</g>
	<path class="st3" d="M23.6,10.9c0,0.5,0.5,2.4,0.5,2.4c-3.4,0-6.1,5.1-6.1,5.1C18.6,12.9,23.6,10.9,23.6,10.9z"></path>
	<path class="st3" d="M20,16.8c0,0,2.7-2.1,5.7-2c0,0-1-0.5-1.2-0.8C24.6,14,21.6,14.3,20,16.8z"></path>
	<path class="st3" d="M26.3,10c0.5,1,1.5,0.5,1.8,0.3s0.8-0.2,0.8-0.2c-0.7-0.2-0.8-0.9-1.8-0.9c-1.2,0-1,0.6-1,0.6
		C26.1,10.1,26.3,10,26.3,10z M26.7,9.9c0,0,0.5-0.3,0.9-0.1C27.8,10,27.9,10,28,10c0,0-0.4,0.3-0.7,0.3C27,10.3,26.8,10.1,26.7,9.9
		z"></path>
	<radialGradient id="SVGID_2_" cx="10.0654" cy="14.7937" r="40.689" gradientUnits="userSpaceOnUse">
		<stop offset="0.2182" style="stop-color:#FFFFFF"></stop>
		<stop offset="0.2354" style="stop-color:#F3F3F3"></stop>
		<stop offset="0.3248" style="stop-color:#BBBBBB"></stop>
		<stop offset="0.4168" style="stop-color:#898989"></stop>
		<stop offset="0.5096" style="stop-color:#5F5F5F"></stop>
		<stop offset="0.6033" style="stop-color:#3D3D3D"></stop>
		<stop offset="0.6981" style="stop-color:#222222"></stop>
		<stop offset="0.7946" style="stop-color:#0F0F0F"></stop>
		<stop offset="0.8939" style="stop-color:#040404"></stop>
		<stop offset="1" style="stop-color:#000000"></stop>
	</radialGradient>
	<path class="st4" d="M33.7,13.1c-0.6-1-2.6-2.8-2.9-3.1c-0.3-0.2-0.4-0.4-0.7-1.1c-0.4-0.7-2.8-1.7-3.3-1.7c-0.5-0.1-0.7-0.3-1-0.6
		c-2.4-2-7-3-7-3c4-0.4,5.7,1.2,6.9,2.3C26.8,7.2,28,7.2,28,7.2c-2.1-1.5-0.7-2.8-3-3.9c-0.6-0.2-0.5-0.1-1.2-0.7
		C23,2.1,21,1.2,19.6,1c-1.4-0.2-1.5-0.3-3.2-0.5c-4.2-0.2-7.7,2.8-7.7,2.8C10.2,2.4,12,2.5,12,2.5C6.3,5.4,5.1,9.1,5.1,9.1
		c5.8-3.6,8.1-1.4,8.1-1.4c-0.2,0-2.7,0-5.6,2.5c-2.9,2.5-3,5.8-3,5.8c5.8-8.7,9.4-4.7,9.4-4.7c-2.5-0.3-6.2,0.8-7.8,6.6
		c-1.8,6.4-6,4.8-6,4.8c0.2,0.4,2.3,1.1,4.9-0.2c2.6-1.3,3-3.3,3.4-4.4s1.4-2.6,2.4-3.7c0.9-1.1,2.4-1.6,2.4-1.6
		c-0.6,0.5-2.6,1.9-4.1,6.1c-1.7,5.6-7,5.9-7,5.9c1,0.9,3.9-0.3,3.9-0.3c5.4,0.9,7.2-5,7.2-5c0.2,2.1-2.1,4.5-2.1,4.5
		c2.7-0.5,3.7-3.5,3.7-3.5c-0.7,3.3-1.8,4.6-6.6,6.3c-4.8,1.7-3.6,3.4-3.6,3.4c0-1.7,2.2-2.5,4.9-3.1c2.9-0.8,5.6-0.9,7.3-8.3
		c1.7-7.3,6.9-8.5,6.9-8.5c-1.8-0.2-2.3-1.4-4.1-1c-1.3,0.3-3,1.2-3,1.2c0.2-0.4,1.8-1.9,2.7-2.4C20.1,7.4,21.8,7,21.8,7
		c-0.6-0.1-4.3-1.9-6.5-2.4c-3.5-0.9-6.2,0.9-6.4,1.1c3.4-2.4,6-2.8,9.3-0.9C21.5,6.6,23.1,7,24,7.2c1.1,0.2,1.5-0.1,2.2,0.5
		c0.3,0.2,0.5,0.2,1.9,0.7c1.4,0.5,1.6,1.8,1.6,1.8c2.3,1.9,3.4,3.5,3.4,3.5c-0.1,0-0.3,0-0.7,0c-0.6,0-0.7-0.1-0.7-0.2
		c-0.1-0.1-0.6-0.7-0.7,0c-0.1,0.7,0.5,1.1,0.8,1.1c0.4,0.2,0.4-0.4,1-0.1c0.2,0.1,0.3,0.5,0.1,0.7c-0.2,0.2-0.8,0.9-0.8,0.9
		c-0.5-0.3-1.2-0.3-1.7,0.1c-0.5,0.4-1.2,0.3-1.5,0.1c-0.3-0.2-0.7-0.1-0.4,0.3c0.3,0.4,1.1,0.9,1.7,0.5c0.6-0.4,1.2,0,1.2,0
		c-0.9,0.6-0.9,1.1-0.8,1.3c0.1,0.2,0.4,0.7-0.3,1c-0.7,0.3-1.6,0.4-1.6,0.4c-0.2-0.9-0.4-2-1.8-2.1c-2.3,0-2.7,3-3.3,4.5
		c-0.3,1.1-0.4,2.2-1.9,3.9c-1.5,1.6-3.9,2-3.9,2c3.1-1.6,4.2-3,5.1-6.9c0.8-3.4,4.4-5.7,4.4-5.7c-1.4,0.1-4.3,0.1-7.5,2.4
		c-4.3,3.7-2.7,4.9-4,7.2c-1.3,2.3-4.9,1.7-4.9,1.7c1.8,1.7,5.8,1.1,7.4-1.9c1.6-3.1,0.1-3.9,1.7-5.8c1.6-1.9,4.1-2.3,4.1-2.3
		c-3.7,2.7-3.5,5.7-5.4,8.6c-1.9,2.9-5.8,3.3-5.8,3.3c1.2,0.8,4-0.4,4-0.4c5.4,0.9,7.1-4.9,7.1-4.9c0.3,2-2.1,4.5-2.1,4.5
		c2.9-0.5,3.8-3.8,3.8-3.8c0.4,0.9-0.2,2.5-0.2,2.5c2-1.5,0.6-5,0.4-5.7s-0.4-1.6,0.7-1.9s1.3,1,1.3,1.1c0,0.1,0.1,0.4,0.2,0.4
		c3.2,0,3.4-1.2,3.3-1.7c-0.1-0.5,0-0.6,0.4-1c0.4-0.4,0.3-0.9,0.3-0.9C34.1,15.1,34.3,14.1,33.7,13.1z M15.4,12.1
		C15.4,12.1,15.4,12.1,15.4,12.1L15.4,12.1c-0.8,1-1.3,2.1-1.7,3.3c-1.2,3.6-1.4,7.5-6.8,8.5c0.4-0.1,0.7-0.3,1-0.4
		c0.2-0.1,0.3-0.2,0.5-0.2C13.2,20.3,10.7,14.5,15.4,12.1z"></path>
	<g>
		<defs>
			<filter id="Adobe_OpacityMaskFilter_1_" filterUnits="userSpaceOnUse" x="-24" y="-36" width="83" height="77">
				<feFlood style="flood-color:white;flood-opacity:1" result="back"></feFlood>
				<feBlend in="SourceGraphic" in2="back" mode="normal"></feBlend>
			</filter>
		</defs>
		<mask maskUnits="userSpaceOnUse" x="-24" y="-36" width="83" height="77" id="SVGID_3_">
			<g class="st5">
				<image style="overflow:visible;" width="87" height="81" xmlns:xlink="http://www.w3.org/1999/xlink" xlink:href="C1B7A6A5.jpg" transform="matrix(1 0 0 1 -26 -38)">
				</image>
			</g>
		</mask>
	</g>
</g>
</svg>